<?xml version="1.0" standalone="no"?>
<!DOCTYPE svg PUBLIC "-//W3C//DTD SVG 20010904//EN"
 "http://www.w3.org/TR/2001/REC-SVG-20010904/DTD/svg10.dtd">
<svg version="1.0" xmlns="http://www.w3.org/2000/svg"
 width="1280.000000pt" height="1081.000000pt" viewBox="0 0 1280.000000 1081.000000"
 preserveAspectRatio="xMidYMid meet">
<g transform="translate(0.000000,1081.000000) scale(0.100000,-0.100000)"
fill="#000000" stroke="none">
<path d="M12435 10679 c-278 -67 -642 -257 -1305 -684 -118 -76 -282 -183
-363 -237 -81 -55 -154 -101 -161 -104 -9 -3 -70 76 -172 225 -88 127 -166
233 -174 235 -12 5 -973 179 -2346 427 l-281 51 -3629 -2516 c-1996 -1385
-3630 -2521 -3632 -2526 -2 -5 740 -1082 1649 -2392 910 -1311 1716 -2473
1792 -2583 76 -110 142 -201 147 -203 5 -2 125 77 267 176 142 98 1772 1229
3623 2512 1851 1283 3369 2336 3373 2340 9 8 76 373 338 1825 77 429 142 787
145 796 3 10 -101 168 -261 399 -146 211 -265 388 -265 395 0 6 33 34 72 61
207 141 538 397 730 565 353 309 610 592 724 796 45 79 94 212 94 251 -1 47
-53 134 -99 167 -39 28 -50 30 -134 32 -51 1 -110 -2 -132 -8z m180 -103 c72
-30 82 -93 33 -213 -108 -266 -597 -762 -1193 -1209 -171 -129 -334 -236 -350
-231 -17 7 -437 615 -433 627 6 18 494 342 813 540 417 259 744 423 950 476
106 27 134 29 180 10z m-2512 -1595 c15 -6 27 -17 27 -24 0 -7 -49 -112 -109
-233 -142 -286 -157 -322 -144 -343 5 -9 32 -24 59 -35 41 -15 67 -17 154 -13
118 6 223 33 384 99 80 33 100 38 108 27 14 -20 2 -226 -16 -282 -54 -168
-175 -311 -326 -385 -87 -42 -204 -72 -284 -72 -84 0 -199 29 -286 71 -68 33
-101 59 -165 123 -130 131 -185 264 -185 446 0 183 56 317 185 447 135 136
288 197 475 189 52 -2 107 -9 123 -15z m209 -92 c106 -68 247 -256 222 -296
-13 -21 -212 -104 -304 -128 -82 -20 -193 -17 -198 6 -4 20 207 449 221 449 6
0 32 -14 59 -31z"/>
</g>
</svg>
